<svg xmlns="http://www.w3.org/2000/svg" width="371" height="370" fill="none"><path fill="#012a32" fill-rule="evenodd" d="M287.125 128.5c-12.479-3.974-25.488-4.908-38.421-6.303 4.121-.909 8.582-2.124 12.779-2.591 3.862-.423 6.161 1.168 9.795 2.434 6.488 2.265 13.736 5.017 19.376 7.648q-1.755-.623-3.529-1.188m-17.772 4.965c-13.691-2.558-27.708-3.114-41.379-5.788 3.39-1.037 5.31-1.942 8.913-1.599 5.355.509 10.773 1.606 16.006 2.771 7.594 1.691 15.255 3.515 22.653 5.914q-3.081-.716-6.193-1.298m.658 2.672c-.936.379-4.22-.905-5.282-1.134 1.022.195 4.683 1.376 5.282 1.134m-27.259-.281c-10.713-.671-21.556-1.007-32.287-.951 1.926-.72 3.766-1.623 5.643-2.465 5.133-2.3 6.025-1.935 11.15-.422 6.608 1.952 13.38 3.063 20.156 4.193a140 140 0 0 0-4.662-.354zm-12.502 6.178c-14.79 1.121-29.379 2.914-44.143 4.567 3.151-1.273 6.182-2.894 9.193-4.458 4.649-2.412 8.217-2.072 13.398-2.074 5.504-.004 10.909.643 16.38 1.265 1.35.155 6.636.588 5.172.7m-22.789-11.238c7.897-7.668 16.956-14.814 26.236-20.786 5.891-3.791 12.297-8.072 19.218-4.785-11.448.476-26.404 10.859-33.18 19.758-.324.421-.822.712-1.161 1.127-1.271 1.544.114 1.712-.752 2.662-.101.112-4.726 2-4.112 1.748-3.137 1.294-6.348 2.38-9.491 3.657a140 140 0 0 1 3.243-3.382zm44.049-18.372c-7.773 6.5-16.205 9.96-25.566 13.221 8.549-5.498 17.121-9.995 26.519-13.933q-.478.355-.953.713zm9.672 2.229c1.62-.518 2.343-.384 2.703 1.54-4.186-.159-6.175.414-10.13 1.375a58 58 0 0 1 7.427-2.915m5.137 1.05c-.292-.528-.417-1.536-.619-2.051 3.108-.051 5.747.606 8.388 2.236-.875.007-7.554.779-7.77-.186zm-126.032 72.151c22.721-2.806 44.513-3.539 67.332-1.315-17.192 1.507-34.456 4.962-51.372 8.316-13.583 2.693-27.355 4.147-40.977 6.581 2.525-2.627 4.884-5.41 7.456-7.999 4.465-4.495 11.156-4.782 17.561-5.583m78.115 6.691a284 284 0 0 0 12.275-1.527c4.435-.655 11.509-3.579 15.971-2.698-24.364 7.233-50.693 10.567-75.739 14.643-10.411 1.695-21.01 4.172-31.095 7.315-14.562 4.535-30.986 4.513-44.883 10.884 4.25-4.455 8.905-10.825 13.747-14.448 3.519-2.634 9.357-2.853 13.544-3.406 6.893-.909 13.82-1.616 20.732-2.36 25.159-2.711 50.279-5.771 75.448-8.403M90.992 218.67a190 190 0 0 0-5.967 6.894c3.509-16.46 3.351-33.818 5.328-50.528 1.118-9.448 2.167-19.002 3.67-28.387 1.33-8.288 1.684-19.58 6.127-26.74 3.316 3.08 5.767 6.349 5.109 10.826-.848 5.758-3.327 11.291-4.481 17.003-1.296 6.418-2.174 12.952-2.975 19.45-1.232 9.993-1.52 20.159-.992 30.208q.214 4.237.545 8.466c.096 1.231.734 3.327.462 4.478-.663 2.828-4.688 5.962-6.826 8.33m24.503-68.531c1.947-9.249 3.135-19.995 7.186-28.665 2.249-4.818 4.411-6.533 7.771-1.329 2.398 3.714-1.369 11.866-2.557 16.534-3.367 13.245-5.144 26.835-7.372 40.303-.582 3.529-.755 7.018-1.13 10.552-.313 2.929-.232 2.755-1.92 4.96-1.084 1.425-2.795 2.635-4.104 3.885-3.429 3.277-6.905 6.511-10.299 9.826 5.163-18.472 8.485-37.32 12.425-56.066m254.02 42.008c-3.129-4.161-7.097-7.913-11.156-11.129-5.623-4.459-12.51-7.067-18.125-11.355-4.723-3.611-8.625-8.415-13.452-12.07-7.667-5.802-15.558-10.628-24.537-14.114 11.435 3.902 22.402 8.599 31.562 16.696.774.686 7.484 9.277 8.873 8.456.95-.554-3.077-6.773-3.916-8.221-6.19-10.648-18.893-17.461-28.931-24.299-11.336-7.722-23.716-12.055-36.633-16.326 11.736.648 21.622 3.662 31.452 10.265 4.836 3.245 9.309 7.037 14.293 10.051 4.418 2.672 8.663 5.136 12.475 8.721 4.271 4.02 7.702 8.399 10.537 13.534 1.065 1.932 6.266 13.625 6.406 6.197.07-3.66-4.553-8.876-6.423-11.52-3.155-4.455-6.815-8.468-10.645-12.348-6.514-6.595-12.733-13.439-20.466-18.641-4.398-2.961-9.004-5.306-14.035-6.997-3.886-1.308-7.876-2.246-11.953-2.708-3.873-.438-4.246-.392-7.327-2.392-2.648-1.721-4.908-3.562-7.87-4.789-3.019-1.252-5.589-1.431-7.836-3.139-2.649-2.019-3.677-4.387-7.097-5.651-3.143-1.164-6.36-.907-9.64-.645-10.847.864-21.861 3.614-30.835 10.03-7.931 5.671-13.324 14.723-17.157 23.547-2.117 4.87-.681 4.687-6.366 7.486-5.976 2.944-11.919 5.836-17.734 9.12 9.588-11.917 17.923-25.111 28.434-36.279 5.62-5.966 11.133-12.028 16.751-17.99 1.659-1.757 14.761-14.412 7.402-13.963-1.701.103-4.261 2.377-5.825 3.124-3.12 1.498-6.219 2.826-9.104 4.783-5.001 3.394-9.083 7.616-13.172 12.007-10.594 11.374-20.142 23.541-25.03 38.476-1.157 3.534-1.58 7.518-3.394 10.761-1.278 2.288-2.778 3.078-5.372 4.768-4.449 2.893-8.773 5.868-12.986 9.103 10.773-15.955 17.722-33.81 26.211-50.989 10.917-22.089 15.912-46.878 25.096-69.7 1.781-4.426 3.95-9.297 6.939-13.065.909-1.146 3.783-2.864 4.034-4.309.663-3.811-1.919-2.788-3.814-1.692-4.645 2.685-9.156 8.742-12.33 12.824-4.619 5.938-9.298 12.38-13.299 18.777-13.786 22.035-22.925 47.041-30.517 71.79-3.572 11.634-7.255 23.46-9.013 35.524-.848 5.826.116 5.982-4.752 9.969-5.083 4.166-9.94 8.586-14.983 12.793 4.595-9.437 7.334-21.141 10.651-31.152 3.472-10.488 7.422-20.818 10.951-31.29 5.739-17.041 10.035-34.489 14.167-51.972a854 854 0 0 0 6.134-27.96c2.418-12.03 4.876-25.921 10.269-37.018.804-1.65 4.072-9.319-.656-6.678-2.166 1.208-4.734 9.11-5.839 11.24-6.264 12.1-11.541 24.384-16.256 37.16-8.357 22.655-14.221 45.87-20.843 69.036-3.31-4.519-10.183-9.494-16.121-7.571-5.335 1.729-7.958 9.322-9.637 14.079-.186-3.291-4.223-9.429-7.37-9.639-1.79-.12-4.871 1.574-6.367 2.282-3.698 1.748-7.898 3.96-10.204 7.4-4.727 7.059-3.83 18.138-4.67 26.307-2.5 24.363-2.052 47.888.702 72.152.629 5.552 1.39 8.128-1.77 12.504-3.608 5-7.086 9.916-10.639 14.61 1.142-2.174.11-8.819.097-11.137-.037-6.21.027-12.367.35-18.572.66-12.78-.025-25.988-.67-38.776-1.325-26.348-1.204-52.36-.316-78.701.186-5.551.061-11.067.027-16.615-.014-2.29.744-7.901-2.894-6.56-1.056.39-1.834 4.486-2.14 5.525-2.834 9.577-3.724 19.938-5.022 29.774-1.18 8.946-2.257 17.906-3.004 26.897-1.436 17.271-.962 34.042-.874 51.342.073 14.25 1.618 29.744 4.253 42.891 1.235 6.166 3.382 12.828 4.008 19.042.38 3.742-1.81 5.129-4.326 8.527-2.544 3.436-5.058 6.899-7.486 10.418.234-5.392-1.303-10.968-1.664-16.363-.302-4.508-.588-8.993-.994-13.496-.323-3.547-.627-7.096-.941-10.645-1.62-18.269-3.201-36.497-6.19-54.598-4.596-27.796-9.609-56.362-9.423-84.64.037-5.396.211-10.789.274-16.187.046-4.069-.328-8.105-.352-12.168-.013-2.072.931-6.079.24-8.143-1.999-5.974-3.731.7-3.787 3.444-.028 1.446-.115 2.887-.137 4.332-.133 9.08-.915 18.034-1.363 27.103-.643 13.076-.069 26.087.366 39.156.474 14.238.117 28.573 1.648 42.757 1.974 18.284 5.927 36.461 8.407 54.696 1.08 7.942 2.586 15.796 3.403 23.774.762 7.456 3.408 14.786 5.02 21.675l-.009-.528c.625 2.927 1.605 4.391.715 7.077-.627 1.888-2.348 3.872-3.379 5.606-2.198 3.688-4.308 7.419-6.419 11.157 1.871-9.488-.664-21.459-2.672-30.779-2.218-10.312-4.922-20.875-8.087-30.932-2.46-7.82-4.497-15.508-5.24-23.649-.99-10.842-3.94-21.269-5.524-32.011-1.496-10.141-4.015-20.183-6.162-30.223-.483-2.259-2.642-13.07-6.153-8.193-.866 1.203.195 4.398.331 5.642.334 3.08.543 6.111.68 9.202.897 19.632 5.008 39.56 8.23 58.902 2.06 12.358 4.24 24.761 7.25 36.924 2.343 9.47 3.608 19.309 6.208 28.646 1.247 4.479 2.513 9.057 4.505 13.262 1.734 3.66 3.481 4.682 2.87 8.626-.876 5.638-5.676 11.491-7.842 16.95-1.772 4.463-3.579 8.933-5.267 13.427a446 446 0 0 0-6.637 19.098c-1.2 3.703-3.53 8.484-3.748 12.252-.332 5.722 2.907 4.085 4.607.258 1.145-2.577 2.058-5.347 3.134-7.967 7.896-19.19 15.126-39.766 26.915-56.986 4.918-7.191 18.512-8.923 26.489-11.43 19.187-6.039 39.944-6.835 59.853-9.042 16.054-1.777 31.847-3.41 47.564-7.358 2.296-.575 44.189-12.909 43.138-15.06.586 1.207-45.833 11.537-49.55 11.842-11.657.95-23.277 1.205-34.96 1.699-29.222 1.237-57.966 1.939-84.518 15.746 3.35-5.27 7.359-15.219 13.24-17.259 11.336-3.938 23.283-6.481 34.703-10.321 11.872-3.986 24.064-6.657 36.005-10.35 11.928-3.69 23.83-7.513 35.94-10.617 12.172-3.118 24.746-6.369 37.393-5.967 4.869.155 9.75.586 14.598 1.044 1.831.173 16.401 2.867 8.522-.479-5.102-2.17-11.782-2.336-17.247-3.132-6.268-.91-12.276-1.718-18.611-1.668-13.794.106-27.65 3.34-40.984 6.541-15.957 3.826-32.569 7.625-47.801 13.784-13.96 5.645-27.993 11.065-41.954 16.64 2.539-3.886 5.239-7.655 7.88-11.472 1.283-1.857 2.637-4.87 4.458-6.138 2.78-1.937 8.629-2.44 11.857-3.516 12.991-4.319 26.04-9.391 39.352-12.604 21.402-5.168 43.314-8.373 64.85-12.972 12.568-2.681 25.877-5.047 38.728-4.819 4.834.088 9.675-.088 14.421.933 1.679.36 3.794 1.29 5.523 1.486 5.174.58 1.336-1.909-1.804-2.997-24.878-8.613-52.302-1.728-77.38 1.777-16.585 2.316-32.958 4.678-48.794 10.383-14.591 5.255-28.54 12.264-43.374 16.879 3.887-5.525 7.353-11.247 13.565-14.286 6.874-3.361 14.119-4.823 21.621-6.097 15.598-2.658 31.09-6.06 46.738-8.375 14.374-2.123 28.723-4.007 42.971-6.906 13.874-2.826 27.666-4.476 40.907-9.816 4.193-1.691 9.275-4.622 13.752-4.878 5.801-.331 12.826 1.407 18.515 2.269 13.856 2.095 28.239 4.255 41.048 10.12 12.568 5.756 21.102 14.802 30.723 24.258 3.032 2.985 6.014 6.019 9.037 9.011.673.667 4.689 5.675 5.517 5.739 5.125.384-4.541-9.772-6.209-11.854-11.527-14.38-24.002-26.374-40.959-34.209-14.452-6.678-29.561-11.022-45.321-13.246.04-2.848 11.651-2.99 11.969-5.941.421-3.935-7.703.003-9.314.487-3.058.918-6.032 2.066-9.105 2.935-7.055 1.994-14.861-.462-22.029-1.382-8.641-1.104-17.397-1.828-26.088-2.352-28.77-1.735-56.374-.78-84.318 6.929 5.014-4.392 10.245-8.566 15.545-12.608 2.063-1.573 3.636-3.014 5.974-3.752 3.949-1.248 8.637-.69 12.753-1.093 16.272-1.587 32.469-3.371 48.831-3.873 26.927-.827 55.001 4.007 80.537 12.567 12.458 4.178 24.68 8.24 35.497 15.931 2.504 1.778 4.731 3.819 7.007 5.874.941.849 6.686 7.026 6.978 6.993 2.492-.266-9.062-13.051-10.741-14.684-22.562-21.929-51.837-26.915-81.73-31.318-31.259-4.605-62.636-2.159-93.433 4.79 6.15-3.837 12.194-10.413 19.098-12.645 5.244-1.695 11.9-1.373 17.206-1.917 15.388-1.582 31.517 1.105 46.938 2.197 17.421 1.232 34.344 3.466 51.188 8.107 8.618 2.375 17.01 4.889 25.418 7.973 6.664 2.444 12.101 3.949 17.493 8.415 2.175 1.818 8.646 6.646 12.147 9.928 1.427 1.341 2.907 4.173 4.521 4.846 6.012 2.509-1.968-7.287-3.278-8.987 4.779 2.855 9.241 6.161 13.483 9.68.84.699 1.643 1.232 2.493 1.869.997.751 1.519 2.942 3.227 2.211 1.391-.597.898-2.031.233-2.937" clip-rule="evenodd"/></svg>