<svg xmlns="http://www.w3.org/2000/svg" width="313" height="287" fill="none"><path fill="#89b99a" fill-rule="evenodd" d="M236.022 135.997c2.712-.023 5.491 2.673 7.444 4.26-5.083-3.399-13.132-3.277-18.96-4.095-5.671-.798-11.302-1.995-16.777-3.715-.12-.036-12.26-4.011-8.148-6.294 11.371-6.379 25.454 10.409 36.441 9.844m-78.906-52.323c2.137 5.241 11.6 30.907 2.403 32.739-7.32 1.458-13.599-14.161-13.992-19.38-.649-8.69-.253-17.362-1.464-26.04 5.095 3.905 10.514 6.39 13.053 12.681m-89.378 158.73c-3.509 4.335-7.056 8.666-10.873 12.733 4.01-4.969 7.835-9.965 12.344-14.499zM303.577 42.247c-1.924-2.482-9.444.55-11.597 1.037-5.906 1.333-12.297 2.517-17.696.18-4.631-1.163 2.865-9.194 4.039-12.266.823-2.153 2.539-7.614 1.113-9.81-3.057-4.704-9.456.81-12.641 2.983-4.666 3.183-6.597 5.244-5.79-.599.869-6.28 7.452-16.86.792-22.424-5.673-4.739-14.491 4.259-17.918 7.874-6.464 6.806-9.463 14.506-10.842 23.671-.323 2.137-2.797 14.772-4.968 12.546-4.334-5.569-.903-13.745-4.325-19.746-1.945-3.41-4.624-5.1-6.259-8.938-1.614-3.788-3.245-10.58-8.468-10.991-3.315-.26-5.504 2.482-6.052 5.217-1.737 6.411-.43 12.185-.542 18.678-.084 4.751-3.207 8.323-2.046 13.212 1.872 7.451 4.314 15.266 5.577 23.025.396 2.432 1.738 13.505-3.024 11.34-2.682-1.219-2.405-11.58-2.587-13.4-.438-4.351-.373-8.693-2.992-12.462-1.502-2.16-3.991-2.992-5.15-4.688-3.424-5.015-3.192-13.515-6.019-19.023-2.537-4.942-9.258-16.922-15.158-18.095-8.08-1.605-5.04 9.393-4.513 14.217.585 5.34 1.482 10.21 1.009 15.42-.415 4.6-.086 8.327 1.677 12.795 3.258 8.255 8.166 15.375 12.284 22.896a1 1 0 0 0-.031-.084c2.312 4.415 4.236 9.889 4.021 14.994-.362 8.557-3.324 4.2-5.924-1.624-3.923-8.78-6.481-18.168-10.356-26.947-1.381-3.127-3.037-6.3-5.916-8.34-1.931-1.367-4.322-1.035-5.821-1.863-5.218-2.874-24.427-35.434-32.494-25.728-4.355 5.24 6.459 16.443 8.739 20.363 3.642 6.261 7.505 10.581 7.137 18.012-2.118-1.966-5.03-.941-6.965-2.503-2.3-1.86-2.945-5.802-4.023-8.38-2.961-7.088-6.447-14.067-11.079-20.182-14.139-18.658-11.761 9.548-10.361 18.863.27 1.787.583 4.07.862 6.104.723 5.336-.519 6.202-1.282 10.92-1.297 8.025 8.164 18.613 13.053 24.362 1.508 1.776 24.758 30.585 14.565 30.344-5.14-.121-13.805-14.734-16.203-19.22-3.688-6.897-6.221-20.68-13.88-24.258-2.406-1.123-4.392.058-6.621-.828-5.208-2.065-8.741-10.218-12.508-14.033-7.666-7.764-17.085-6.686-10.671 5.911 2.54 4.984 3.799 8.31 5.358 13.735 1.78 6.189 7.368 9.377 9.94 14.799 2.124 4.481-1.183 2.084-.991 7.417.16 4.428 7.03 9.272 10.262 11.736 4.49 3.421 24.729 14.887 20.761 21.805-3.617 6.307-15.416-3.201-18.571-6.093-7.892-7.234-11.04-17-15.479-26.369-2.163-4.567-4.64-10.11-8.18-13.806-3.105-3.24-6.639-3.683-10.486-5.356-4.48-1.948-24.225-12.336-23.315.217.612 8.434 12.362 12.518 13.83 20.569-5.285-2.355-16.347-13.061-22.645-7.433-6.08 5.434 5.984 17.164 9.658 21.598 2.256 2.718 17.695 14.954 17.435 19.539-.273 4.788-5.813 3.073-9.014 2.438C48.81 144.49-.217 132.421 0 142.413c.166 7.749 19.019 5.127 21.454 9.52.896 1.615-1.053 2.402-1.399 4.125-1.262 6.317.832 8.841 7.464 9.533-6.299 15.096 14.556 7.086 21.567 4.678 4.776-1.64 25.095-9.071 26.502 1.125.473 3.428-5.266 8.827-6.244 12.18-1.885 6.47 2.867 10.44 9.107 8.251 4.295-1.503 8.195-5.305 10.95-8.828 1.584-2.02 4.381-8.673 7.023-9.134-.263 10.95 6.124 5.289 11.95.583 4.358-3.52 15.214-13.089 21.691-9.283-5.071 7.039-12.001 12.644-17.541 19.29-6.063 7.28-12.373 14.079-19.366 20.96-13.262 13.046-26.555 27.267-38.224 41.688-5.708 7.053-11.889 13.774-18.007 20.472-2.209 2.414-16.073 13.25-11.214 17.652 6.572 5.954 17.98-16.56 22.672-19.166 22.302-25.367 46.07-49.451 67.686-75.304-.89 2.916.085 11.141 4.494 11.001-1.039 2.397-4.156 6.05-3.432 8.794 1.607 6.071 4.063.601 6.341.957 3.891.61.696 7.627-.024 10.486-3.361 13.326-3.992 27.888-4.858 41.596-.473 7.521 5.85 28.342 16.529 19.43 5.331-4.447 5.882-15.581 6.221-21.814.216-3.932-1.58-14.85 1.149-18.252 4.516 2.388 9.936 13.127 12.836 16.973 6.13 8.135 11.494 13.307 22.144 14.002 25.305 1.653-5.339-27.087-2.286-29.012 2.149-1.354 16.966 11.145 18.926 12.637 4.343 3.309 17.573 11.38 22.431 4.61 4.074-5.679-6.347-15.186-9.439-18.845-2.593-3.067-4.53-7.266-7.776-10.356-2.67-2.542-6.248-3.989-8.892-6.409-2.751-2.516-2.91-6.137-5.977-9.016-3.44-3.235-8.118-5.936-11.905-8.88-6.33-4.92-15.286-11.315-16.027-20.244 14.459 1.795 24.334 17.538 34.207 26.686 4.938 4.575 10.751 10.444 17.902 8.886 2.873-.627-.202-1.186 3.643-1.451.863-.06 2.031.445 2.867.641 5.995 1.411 11.737 3.597 17.681 5.16 3.686.972 15.515 5.288 18.821 1.74 5.993-6.433-19.883-22.598-24.457-26.182-3.461-2.708-7.625-5.026-10.891-7.839-2.998-2.581-4.006-6.024-8.038-7.925-5.22-2.461-11.288-3.305-16.73-5.153-7.321-2.485-13.415-6.131-19.508-10.816-2.523-1.94-8.649-6.115-7.325-9.627 2.131-5.64 11.74 1.568 14.462 3.112 8.06 4.576 15.604 11.869 25.572 14.877 10.311 3.116 15.606 13.248 25.101 17.784 3.429 1.637 5.36 1.793 8.976 1.127 4.024-.737 5.931-1.205 10.658-.003 4.284 1.091 24.955 7.806 23.382-1.835-.51-3.128-5.044-4.419-7.342-5.697-5.063-2.82-9.98-5.929-15.111-8.624-3.258-1.711-7.398-2.892-10.066-5.545-2.529-2.518-3.094-5.08-6.733-6.719-4.9-2.208-12.266-1.852-16.557-4.838-4.092-2.846-7.328-6.935-12.014-9.562-3.729-2.089-24.858-9.911-24.28-13.403 1.171-7.099 24.967 6.468 26.8 7.464 11.679 6.347 23.133 14.81 35.123 20.787 4.03 2.009 7.156 1.261 10.869 1.806 4.932.724 10.083 4.112 15.091 5.285 3.992.935 14.431 3.377 12.394-3.574-1.47-5.023-11.02-9.351-15.013-12.392-4.516-3.434-8.72-7.152-13.609-10.057-1.052-.626-3.37-1.416-4.141-2.28-2.13-2.398-.72-6.049-3.283-8.746 2.691 2.587 5.345 3.929 8.997 3.965.954.012 2.79-1.01 3.986-1.159 3.612-.452 7.864.758 11.481 1.168 5.079.57 30.677-.158 17.492-9.132-5.636-3.836-11.974-6.744-18.251-9.316-4.931-2.023-11.39-3.507-15.546-6.902-4.307-3.52-5.097-5.337-11.358-6.267-6.434-.956-15.512-.767-20.571-5.408-10.303-9.459 24.014-3.11 27.663-2.188 7.373 1.861 15.343 3.321 22.88 1.656 8.404-1.856 15.365-5.841 24.203-6.245 3.942-.177 16.855.227 16.629-6.106-.221-6.235-14.664-6.65-18.496-7.418-3.959-.793-8.459-1.063-12.264-2.223-3.454-1.054-6.09-3.282-9.455-4.581-9.54-3.688-17.646 1.016-27.158.575-5.022-.234-7.416-2.21-2.166-5.796 2.831-1.939 7.38-2.12 10.719-3.059 5.022-1.41 9.966-3.208 14.924-4.838 6.691-2.201 44.257-13.981 34.889-25.98" clip-rule="evenodd"/></svg>